<svg version="1" xmlns="http://www.w3.org/2000/svg" width="682.667" height="682.667" viewBox="0 0 512.000000 512.000000"><path d="M0 256v256h512V0H0v256zM159.5 71.1c4.4.6 11.9 1.9 16.8 3l8.7 2.1v28.6l-9.4-3.3c-13.9-5-24.1-6.8-35.5-6.3-12.4.5-18.4 3-20.7 8.5-2.1 4.8-1.2 10.1 2 12.9 3.5 3.1 8.8 4.7 27.6 8.8 33.8 7.3 44.2 16.8 44.3 40.6.2 21.4-8.7 34.7-27 40.9-12.7 4.3-36.5 4.5-55.5.6-9.5-2-21-5.4-22.5-6.7-1.4-1.2-1.9-28.8-.5-28.8.4 0 4.9 1.8 10 4 15.6 6.7 22.9 8.4 37.2 8.5 10.8 0 13.1-.3 16.5-2.1 7.5-3.9 10.1-10.6 7-18-2-4.8-8.1-7.4-27.5-11.9-29.9-6.8-41-15.4-44.1-34.1-2.2-13.6 2.7-29.4 11.4-36.9 12.9-11.2 30.6-14.2 61.2-10.4zm197 37.4l15.3 36 1.6-3.5c.9-1.9 7.9-18.1 15.6-36l13.9-32.5 22.5-.3L448 72v136h-33l-.1-49.3c0-33.8-.3-48.7-1-47.7-.6.8-7.7 17-15.8 36l-14.8 34.5h-22.6L345.6 146l-15.1-35.5-.3 48.8-.2 48.7h-34V72l22.6.2 22.6.3 15.3 36zM148.2 268.2c5 1.5 12.2 7.8 15.1 13.2 2.8 5.3 3.1 17.4.4 22.3L162 307l24.5 66.1c13.5 36.3 24.5 66.3 24.5 66.5 0 .2-7.8.4-17.4.4h-17.4l-1.6-4.3c-.9-2.3-2.8-7.8-4.3-12.2l-2.8-8h-55l-2.8 8c-1.5 4.4-3.4 9.9-4.3 12.2l-1.6 4.3H86.4c-9.6 0-17.4-.2-17.4-.4 0-.3 11-30.2 24.6-66.7l24.5-66.2-1.8-3.6c-2.6-5.3-2.4-16.4.4-21.7 2.7-5 10-11.7 14.5-13.1 4.5-1.5 12.3-1.5 17-.1zM374 348.7c12.9 24.5 24 45.3 24.7 46.2 1 1.3 1.2-8.1 1.3-44.7V304h33v136h-19.7l-19.8-.1-23.5-44.6c-12.9-24.5-24-45.3-24.7-46.2-1-1.3-1.2 8.1-1.3 44.6V440h-33V304h19.8l19.7.1 23.5 44.6z"/><path d="M133.8 282.8c-3.1 1.9-5.8 6.7-5.8 10.5 0 3.9 4.1 9 8.5 10.6 3.5 1.2 4.5 1.1 7.7-.2 4.1-1.7 7.8-6.8 7.8-10.5 0-9.2-10.5-15.2-18.2-10.4zM130.7 362.8c-4.8 14.1-8.7 26-8.7 26.4 0 .5 8.1.8 18 .8s18-.3 18-.8c.1-1.3-17.5-52.2-18-52.2-.3 0-4.4 11.6-9.3 25.8z"/></svg>